<svg data-v-423bf9ae="" xmlns="http://www.w3.org/2000/svg" viewBox="0 0 566.1904299844884 163" class="iconAbove"><!----><!----><!----><g data-v-423bf9ae="" id="608c81d7-6cf2-4b0e-91eb-282eeec17175" fill="black" transform="matrix(4.761904617736313,0,0,4.761904617736313,-4.333337111403466,88.00000333786011)"><path d="M4.63 13.23L4.63 13.23Q2.81 13.23 1.90 12.20L1.90 12.20L1.90 12.20Q0.99 11.17 0.92 9.44L0.92 9.44L0.92 9.44Q0.91 9.06 0.91 8.20L0.91 8.20L0.91 8.20Q0.91 7.34 0.92 6.94L0.92 6.94L0.92 6.94Q0.99 5.21 1.90 4.18L1.90 4.18L1.90 4.18Q2.81 3.15 4.63 3.15L4.63 3.15L4.63 3.15Q5.88 3.15 6.71 3.61L6.71 3.61L6.71 3.61Q7.53 4.06 7.93 4.75L7.93 4.75L7.93 4.75Q8.33 5.45 8.37 6.17L8.37 6.17L8.37 6.20L8.37 6.20Q8.37 6.31 8.29 6.38L8.29 6.38L8.29 6.38Q8.20 6.45 8.08 6.45L8.08 6.45L7.80 6.45L7.80 6.45Q7.55 6.45 7.49 6.16L7.49 6.16L7.49 6.16Q7.22 4.97 6.52 4.48L6.52 4.48L6.52 4.48Q5.82 3.99 4.63 3.99L4.63 3.99L4.63 3.99Q3.32 3.99 2.59 4.73L2.59 4.73L2.59 4.73Q1.86 5.47 1.81 7.01L1.81 7.01L1.81 7.01Q1.79 7.39 1.79 8.18L1.79 8.18L1.79 8.18Q1.79 8.96 1.81 9.37L1.81 9.37L1.81 9.37Q1.86 10.91 2.59 11.65L2.59 11.65L2.59 11.65Q3.32 12.39 4.63 12.39L4.63 12.39L4.63 12.39Q5.82 12.39 6.52 11.90L6.52 11.90L6.52 11.90Q7.22 11.41 7.49 10.22L7.49 10.22L7.49 10.22Q7.55 9.93 7.80 9.93L7.80 9.93L8.08 9.93L8.08 9.93Q8.20 9.93 8.29 10.00L8.29 10.00L8.29 10.00Q8.39 10.08 8.37 10.21L8.37 10.21L8.37 10.21Q8.33 10.93 7.93 11.63L7.93 11.63L7.93 11.63Q7.53 12.32 6.71 12.78L6.71 12.78L6.71 12.78Q5.88 13.23 4.63 13.23L4.63 13.23ZM10.56 13.09L10.56 13.09Q10.42 13.09 10.33 13.01L10.33 13.01L10.33 13.01Q10.25 12.92 10.25 12.78L10.25 12.78L10.25 6.13L10.25 6.13Q10.25 5.99 10.33 5.90L10.33 5.90L10.33 5.90Q10.42 5.81 10.56 5.81L10.56 5.81L10.78 5.81L10.78 5.81Q10.92 5.81 11.01 5.90L11.01 5.90L11.01 5.90Q11.10 5.99 11.10 6.13L11.10 6.13L11.10 6.78L11.10 6.78Q11.61 5.81 13.01 5.81L13.01 5.81L13.52 5.81L13.52 5.81Q13.66 5.81 13.75 5.89L13.75 5.89L13.75 5.89Q13.83 5.98 13.83 6.12L13.83 6.12L13.83 6.31L13.83 6.31Q13.83 6.45 13.75 6.54L13.75 6.54L13.75 6.54Q13.66 6.62 13.52 6.62L13.52 6.62L12.92 6.62L12.92 6.62Q12.08 6.62 11.59 7.11L11.59 7.11L11.59 7.11Q11.10 7.60 11.10 8.44L11.10 8.44L11.10 12.78L11.10 12.78Q11.10 12.92 11.01 13.01L11.01 13.01L11.01 13.01Q10.92 13.09 10.78 13.09L10.78 13.09L10.56 13.09ZM16.35 15.75L16.35 15.75Q16.24 15.75 16.16 15.67L16.16 15.67L16.16 15.67Q16.07 15.58 16.07 15.47L16.07 15.47L16.07 15.47Q16.07 15.40 16.16 15.19L16.16 15.19L17.23 12.67L14.56 6.37L14.56 6.37Q14.48 6.16 14.48 6.09L14.48 6.09L14.48 6.09Q14.48 5.98 14.56 5.89L14.56 5.89L14.56 5.89Q14.64 5.81 14.76 5.81L14.76 5.81L15.05 5.81L15.05 5.81Q15.27 5.81 15.37 6.02L15.37 6.02L17.72 11.56L20.13 6.02L20.13 6.02Q20.24 5.81 20.45 5.81L20.45 5.81L20.73 5.81L20.73 5.81Q20.85 5.81 20.93 5.89L20.93 5.89L20.93 5.89Q21.01 5.98 21.01 6.09L21.01 6.09L21.01 6.09Q21.01 6.16 20.93 6.37L20.93 6.37L16.95 15.54L16.95 15.54Q16.86 15.75 16.63 15.75L16.63 15.75L16.35 15.75ZM24.88 13.23L24.88 13.23Q23.97 13.23 23.35 12.92L23.35 12.92L23.35 12.92Q22.72 12.61 22.41 12.22L22.41 12.22L22.41 12.22Q22.09 11.83 22.09 11.59L22.09 11.59L22.09 11.59Q22.09 11.47 22.19 11.39L22.19 11.39L22.19 11.39Q22.29 11.31 22.40 11.31L22.40 11.31L22.61 11.31L22.61 11.31Q22.71 11.31 22.77 11.35L22.77 11.35L22.77 11.35Q22.83 11.38 22.92 11.49L22.92 11.49L22.92 11.49Q23.23 11.93 23.67 12.17L23.67 12.17L23.67 12.17Q24.11 12.42 24.88 12.42L24.88 12.42L24.88 12.42Q25.75 12.42 26.28 12.09L26.28 12.09L26.28 12.09Q26.81 11.76 26.81 11.14L26.81 11.14L26.81 11.14Q26.81 10.77 26.59 10.53L26.59 10.53L26.59 10.53Q26.38 10.29 25.89 10.12L25.89 10.12L25.89 10.12Q25.41 9.94 24.46 9.72L24.46 9.72L24.46 9.72Q23.21 9.44 22.76 8.95L22.76 8.95L22.76 8.95Q22.30 8.46 22.30 7.70L22.30 7.70L22.30 7.70Q22.30 7.18 22.59 6.72L22.59 6.72L22.59 6.72Q22.88 6.26 23.44 5.96L23.44 5.96L23.44 5.96Q24.01 5.67 24.81 5.67L24.81 5.67L24.81 5.67Q25.65 5.67 26.23 5.96L26.23 5.96L26.23 5.96Q26.81 6.24 27.10 6.62L27.10 6.62L27.10 6.62Q27.38 7 27.38 7.24L27.38 7.24L27.38 7.24Q27.38 7.36 27.29 7.44L27.29 7.44L27.29 7.44Q27.20 7.52 27.08 7.52L27.08 7.52L26.87 7.52L26.87 7.52Q26.67 7.52 26.56 7.34L26.56 7.34L26.56 7.34Q26.28 6.92 25.92 6.70L25.92 6.70L25.92 6.70Q25.56 6.48 24.81 6.48L24.81 6.48L24.81 6.48Q24.00 6.48 23.58 6.82L23.58 6.82L23.58 6.82Q23.16 7.15 23.16 7.70L23.16 7.70L23.16 7.70Q23.16 8.04 23.32 8.26L23.32 8.26L23.32 8.26Q23.49 8.48 23.95 8.67L23.95 8.67L23.95 8.67Q24.42 8.86 25.30 9.06L25.30 9.06L25.30 9.06Q26.60 9.35 27.13 9.84L27.13 9.84L27.13 9.84Q27.66 10.33 27.66 11.14L27.66 11.14L27.66 11.14Q27.66 11.72 27.34 12.19L27.34 12.19L27.34 12.19Q27.02 12.67 26.39 12.95L26.39 12.95L26.39 12.95Q25.76 13.23 24.88 13.23L24.88 13.23ZM29.95 13.09L29.95 13.09Q29.81 13.09 29.72 13.01L29.72 13.01L29.72 13.01Q29.64 12.92 29.64 12.78L29.64 12.78L29.64 3.60L29.64 3.60Q29.64 3.46 29.72 3.37L29.72 3.37L29.72 3.37Q29.81 3.29 29.95 3.29L29.95 3.29L30.21 3.29L30.21 3.29Q30.35 3.29 30.44 3.37L30.44 3.37L30.44 3.37Q30.52 3.46 30.52 3.60L30.52 3.60L30.52 12.25L35.35 12.25L35.35 12.25Q35.50 12.25 35.59 12.33L35.59 12.33L35.59 12.33Q35.67 12.42 35.67 12.57L35.67 12.57L35.67 12.78L35.67 12.78Q35.67 12.92 35.58 13.01L35.58 13.01L35.58 13.01Q35.49 13.09 35.35 13.09L35.35 13.09L29.95 13.09ZM37.28 4.31L37.28 4.31Q37.14 4.31 37.06 4.23L37.06 4.23L37.06 4.23Q36.97 4.14 36.97 4.00L36.97 4.00L36.97 3.47L36.97 3.47Q36.97 3.33 37.06 3.24L37.06 3.24L37.06 3.24Q37.14 3.15 37.28 3.15L37.28 3.15L37.81 3.15L37.81 3.15Q37.95 3.15 38.05 3.24L38.05 3.24L38.05 3.24Q38.14 3.33 38.14 3.47L38.14 3.47L38.14 4.00L38.14 4.00Q38.14 4.14 38.05 4.23L38.05 4.23L38.05 4.23Q37.95 4.31 37.81 4.31L37.81 4.31L37.28 4.31ZM37.44 13.09L37.44 13.09Q37.30 13.09 37.21 13.01L37.21 13.01L37.21 13.01Q37.13 12.92 37.13 12.78L37.13 12.78L37.13 6.12L37.13 6.12Q37.13 5.98 37.21 5.89L37.21 5.89L37.21 5.89Q37.30 5.81 37.44 5.81L37.44 5.81L37.67 5.81L37.67 5.81Q37.81 5.81 37.90 5.89L37.90 5.89L37.90 5.89Q37.98 5.98 37.98 6.12L37.98 6.12L37.98 12.78L37.98 12.78Q37.98 12.92 37.90 13.01L37.90 13.01L37.90 13.01Q37.81 13.09 37.67 13.09L37.67 13.09L37.44 13.09ZM40.56 13.09L40.56 13.09Q40.42 13.09 40.33 13.01L40.33 13.01L40.33 13.01Q40.25 12.92 40.25 12.78L40.25 12.78L40.25 6.12L40.25 6.12Q40.25 5.98 40.33 5.89L40.33 5.89L40.33 5.89Q40.42 5.81 40.56 5.81L40.56 5.81L40.80 5.81L40.80 5.81Q40.94 5.81 41.02 5.89L41.02 5.89L41.02 5.89Q41.10 5.98 41.10 6.12L41.10 6.12L41.10 6.78L41.10 6.78Q41.52 6.23 42.06 5.95L42.06 5.95L42.06 5.95Q42.60 5.67 43.46 5.67L43.46 5.67L43.46 5.67Q44.83 5.67 45.57 6.54L45.57 6.54L45.57 6.54Q46.31 7.42 46.31 8.81L46.31 8.81L46.31 12.78L46.31 12.78Q46.31 12.92 46.23 13.01L46.23 13.01L46.23 13.01Q46.14 13.09 46.00 13.09L46.00 13.09L45.77 13.09L45.77 13.09Q45.63 13.09 45.54 13.01L45.54 13.01L45.54 13.01Q45.46 12.92 45.46 12.78L45.46 12.78L45.46 8.88L45.46 8.88Q45.46 7.74 44.91 7.11L44.91 7.11L44.91 7.11Q44.35 6.48 43.32 6.48L43.32 6.48L43.32 6.48Q42.31 6.48 41.71 7.12L41.71 7.12L41.71 7.12Q41.10 7.76 41.10 8.88L41.10 8.88L41.10 12.78L41.10 12.78Q41.10 12.92 41.02 13.01L41.02 13.01L41.02 13.01Q40.94 13.09 40.80 13.09L40.80 13.09L40.56 13.09ZM55.62 13.23L55.62 13.23Q53.80 13.23 52.89 12.20L52.89 12.20L52.89 12.20Q51.98 11.17 51.91 9.44L51.91 9.44L51.91 9.44Q51.90 9.06 51.90 8.20L51.90 8.20L51.90 8.20Q51.90 7.34 51.91 6.94L51.91 6.94L51.91 6.94Q51.98 5.21 52.89 4.18L52.89 4.18L52.89 4.18Q53.80 3.15 55.62 3.15L55.62 3.15L55.62 3.15Q56.87 3.15 57.69 3.61L57.69 3.61L57.69 3.61Q58.52 4.06 58.92 4.75L58.92 4.75L58.92 4.75Q59.32 5.45 59.36 6.17L59.36 6.17L59.36 6.20L59.36 6.20Q59.36 6.31 59.28 6.38L59.28 6.38L59.28 6.38Q59.19 6.45 59.07 6.45L59.07 6.45L58.79 6.45L58.79 6.45Q58.53 6.45 58.48 6.16L58.48 6.16L58.48 6.16Q58.21 4.97 57.51 4.48L57.51 4.48L57.51 4.48Q56.81 3.99 55.62 3.99L55.62 3.99L55.62 3.99Q54.31 3.99 53.58 4.73L53.58 4.73L53.58 4.73Q52.85 5.47 52.79 7.01L52.79 7.01L52.79 7.01Q52.78 7.39 52.78 8.18L52.78 8.18L52.78 8.18Q52.78 8.96 52.79 9.37L52.79 9.37L52.79 9.37Q52.85 10.91 53.58 11.65L53.58 11.65L53.58 11.65Q54.31 12.39 55.62 12.39L55.62 12.39L55.62 12.39Q56.81 12.39 57.51 11.90L57.51 11.90L57.51 11.90Q58.21 11.41 58.48 10.22L58.48 10.22L58.48 10.22Q58.53 9.93 58.79 9.93L58.79 9.93L59.07 9.93L59.07 9.93Q59.19 9.93 59.28 10.00L59.28 10.00L59.28 10.00Q59.37 10.08 59.36 10.21L59.36 10.21L59.36 10.21Q59.32 10.93 58.92 11.63L58.92 11.63L58.92 11.63Q58.52 12.32 57.69 12.78L57.69 12.78L57.69 12.78Q56.87 13.23 55.62 13.23L55.62 13.23ZM64.01 13.23L64.01 13.23Q62.55 13.23 61.75 12.34L61.75 12.34L61.75 12.34Q60.94 11.45 60.90 10.04L60.90 10.04L60.89 9.45L60.90 8.86L60.90 8.86Q60.94 7.45 61.75 6.56L61.75 6.56L61.75 6.56Q62.55 5.67 64.01 5.67L64.01 5.67L64.01 5.67Q65.46 5.67 66.27 6.56L66.27 6.56L66.27 6.56Q67.07 7.45 67.12 8.86L67.12 8.86L67.12 8.86Q67.13 9.00 67.13 9.45L67.13 9.45L67.13 9.45Q67.13 9.90 67.12 10.04L67.12 10.04L67.12 10.04Q67.07 11.45 66.27 12.34L66.27 12.34L66.27 12.34Q65.46 13.23 64.01 13.23L64.01 13.23ZM64.01 12.42L64.01 12.42Q65.00 12.42 65.61 11.78L65.61 11.78L65.61 11.78Q66.22 11.14 66.26 9.97L66.26 9.97L66.26 9.97Q66.28 9.83 66.28 9.45L66.28 9.45L66.28 9.45Q66.28 9.07 66.26 8.93L66.26 8.93L66.26 8.93Q66.22 7.76 65.61 7.12L65.61 7.12L65.61 7.12Q65.00 6.48 64.01 6.48L64.01 6.48L64.01 6.48Q63.01 6.48 62.41 7.12L62.41 7.12L62.41 7.12Q61.80 7.76 61.75 8.93L61.75 8.93L61.74 9.45L61.75 9.97L61.75 9.97Q61.80 11.14 62.41 11.78L62.41 11.78L62.41 11.78Q63.01 12.42 64.01 12.42L64.01 12.42ZM69.37 13.09L69.37 13.09Q69.23 13.09 69.15 13.01L69.15 13.01L69.15 13.01Q69.06 12.92 69.06 12.78L69.06 12.78L69.06 3.46L69.06 3.46Q69.06 3.32 69.15 3.23L69.15 3.23L69.15 3.23Q69.23 3.15 69.37 3.15L69.37 3.15L69.61 3.15L69.61 3.15Q69.75 3.15 69.83 3.23L69.83 3.23L69.83 3.23Q69.92 3.32 69.92 3.46L69.92 3.46L69.92 12.78L69.92 12.78Q69.92 12.92 69.83 13.01L69.83 13.01L69.83 13.01Q69.75 13.09 69.61 13.09L69.61 13.09L69.37 13.09ZM72.52 13.09L72.52 13.09Q72.38 13.09 72.30 13.01L72.30 13.01L72.30 13.01Q72.21 12.92 72.21 12.78L72.21 12.78L72.21 3.46L72.21 3.46Q72.21 3.32 72.30 3.23L72.30 3.23L72.30 3.23Q72.38 3.15 72.52 3.15L72.52 3.15L72.76 3.15L72.76 3.15Q72.90 3.15 72.98 3.23L72.98 3.23L72.98 3.23Q73.07 3.32 73.07 3.46L73.07 3.46L73.07 12.78L73.07 12.78Q73.07 12.92 72.98 13.01L72.98 13.01L72.98 13.01Q72.90 13.09 72.76 13.09L72.76 13.09L72.52 13.09ZM78.05 13.23L78.05 13.23Q76.72 13.23 75.91 12.36L75.91 12.36L75.91 12.36Q75.10 11.48 74.98 10.01L74.98 10.01L74.97 9.45L74.98 8.89L74.98 8.89Q75.10 7.43 75.90 6.55L75.90 6.55L75.90 6.55Q76.71 5.67 78.05 5.67L78.05 5.67L78.05 5.67Q79.51 5.67 80.33 6.64L80.33 6.64L80.33 6.64Q81.14 7.60 81.14 9.28L81.14 9.28L81.14 9.49L81.14 9.49Q81.14 9.63 81.05 9.72L81.05 9.72L81.05 9.72Q80.96 9.80 80.82 9.80L80.82 9.80L75.84 9.80L75.84 9.94L75.84 9.94Q75.87 10.60 76.14 11.16L76.14 11.16L76.14 11.16Q76.41 11.73 76.90 12.07L76.90 12.07L76.90 12.07Q77.39 12.42 78.05 12.42L78.05 12.42L78.05 12.42Q78.82 12.42 79.30 12.12L79.30 12.12L79.30 12.12Q79.79 11.82 80.00 11.51L80.00 11.51L80.00 11.51Q80.12 11.34 80.19 11.30L80.19 11.30L80.19 11.30Q80.25 11.26 80.42 11.26L80.42 11.26L80.64 11.26L80.64 11.26Q80.77 11.26 80.85 11.33L80.85 11.33L80.85 11.33Q80.93 11.40 80.93 11.51L80.93 11.51L80.93 11.51Q80.93 11.80 80.56 12.21L80.56 12.21L80.56 12.21Q80.19 12.63 79.53 12.93L79.53 12.93L79.53 12.93Q78.88 13.23 78.05 13.23L78.05 13.23ZM75.84 9.02L80.29 9.02L80.29 8.96L80.29 8.96Q80.29 7.88 79.68 7.18L79.68 7.18L79.68 7.18Q79.07 6.48 78.05 6.48L78.05 6.48L78.05 6.48Q77.03 6.48 76.43 7.18L76.43 7.18L76.43 7.18Q75.84 7.88 75.84 8.96L75.84 8.96L75.84 9.02ZM85.75 13.23L85.75 13.23Q84.29 13.23 83.50 12.38L83.50 12.38L83.50 12.38Q82.70 11.54 82.66 10.01L82.66 10.01L82.64 9.45L82.66 8.89L82.66 8.89Q82.70 7.36 83.50 6.52L83.50 6.52L83.50 6.52Q84.29 5.67 85.75 5.67L85.75 5.67L85.75 5.67Q86.67 5.67 87.33 6.00L87.33 6.00L87.33 6.00Q87.98 6.33 88.30 6.84L88.30 6.84L88.30 6.84Q88.62 7.35 88.65 7.90L88.65 7.90L88.65 7.90Q88.66 8.02 88.56 8.11L88.56 8.11L88.56 8.11Q88.47 8.20 88.34 8.20L88.34 8.20L88.14 8.20L88.14 8.20Q88.00 8.20 87.94 8.14L87.94 8.14L87.94 8.14Q87.88 8.08 87.81 7.91L87.81 7.91L87.81 7.91Q87.53 7.14 87.02 6.81L87.02 6.81L87.02 6.81Q86.52 6.48 85.75 6.48L85.75 6.48L85.75 6.48Q84.74 6.48 84.15 7.09L84.15 7.09L84.15 7.09Q83.55 7.70 83.51 8.96L83.51 8.96L83.50 9.45L83.51 9.94L83.51 9.94Q83.55 11.20 84.15 11.81L84.15 11.81L84.15 11.81Q84.74 12.42 85.75 12.42L85.75 12.42L85.75 12.42Q86.52 12.42 87.02 12.09L87.02 12.09L87.02 12.09Q87.53 11.76 87.81 10.99L87.81 10.99L87.81 10.99Q87.88 10.82 87.94 10.76L87.94 10.76L87.94 10.76Q88.00 10.70 88.14 10.70L88.14 10.70L88.34 10.70L88.34 10.70Q88.47 10.70 88.56 10.79L88.56 10.79L88.56 10.79Q88.66 10.88 88.65 11.00L88.65 11.00L88.65 11.00Q88.62 11.55 88.30 12.06L88.30 12.06L88.30 12.06Q87.98 12.57 87.33 12.90L87.33 12.90L87.33 12.90Q86.67 13.23 85.75 13.23L85.75 13.23ZM92.95 13.09L92.95 13.09Q91.91 13.09 91.48 12.47L91.48 12.47L91.48 12.47Q91.04 11.84 91.04 10.75L91.04 10.75L91.04 6.62L89.95 6.62L89.95 6.62Q89.81 6.62 89.73 6.54L89.73 6.54L89.73 6.54Q89.64 6.45 89.64 6.31L89.64 6.31L89.64 6.12L89.64 6.12Q89.64 5.98 89.73 5.89L89.73 5.89L89.73 5.89Q89.81 5.81 89.95 5.81L89.95 5.81L91.04 5.81L91.04 3.46L91.04 3.46Q91.04 3.32 91.13 3.23L91.13 3.23L91.13 3.23Q91.21 3.15 91.35 3.15L91.35 3.15L91.59 3.15L91.59 3.15Q91.73 3.15 91.81 3.23L91.81 3.23L91.81 3.23Q91.90 3.32 91.90 3.46L91.90 3.46L91.90 5.81L93.63 5.81L93.63 5.81Q93.77 5.81 93.86 5.89L93.86 5.89L93.86 5.89Q93.94 5.98 93.94 6.12L93.94 6.12L93.94 6.31L93.94 6.31Q93.94 6.45 93.86 6.54L93.86 6.54L93.86 6.54Q93.77 6.62 93.63 6.62L93.63 6.62L91.90 6.62L91.90 10.70L91.90 10.70Q91.90 11.48 92.16 11.88L92.16 11.88L92.16 11.88Q92.41 12.28 93.02 12.28L93.02 12.28L93.77 12.28L93.77 12.28Q93.91 12.28 94.00 12.36L94.00 12.36L94.00 12.36Q94.08 12.45 94.08 12.59L94.08 12.59L94.08 12.78L94.08 12.78Q94.08 12.92 94.00 13.01L94.00 13.01L94.00 13.01Q93.91 13.09 93.77 13.09L93.77 13.09L92.95 13.09ZM95.68 4.31L95.68 4.31Q95.54 4.31 95.45 4.23L95.45 4.23L95.45 4.23Q95.37 4.14 95.37 4.00L95.37 4.00L95.37 3.47L95.37 3.47Q95.37 3.33 95.45 3.24L95.45 3.24L95.45 3.24Q95.54 3.15 95.68 3.15L95.68 3.15L96.21 3.15L96.21 3.15Q96.35 3.15 96.44 3.24L96.44 3.24L96.44 3.24Q96.53 3.33 96.53 3.47L96.53 3.47L96.53 4.00L96.53 4.00Q96.53 4.14 96.44 4.23L96.44 4.23L96.44 4.23Q96.35 4.31 96.21 4.31L96.21 4.31L95.68 4.31ZM95.83 13.09L95.83 13.09Q95.69 13.09 95.61 13.01L95.61 13.01L95.61 13.01Q95.52 12.92 95.52 12.78L95.52 12.78L95.52 6.12L95.52 6.12Q95.52 5.98 95.61 5.89L95.61 5.89L95.61 5.89Q95.69 5.81 95.83 5.81L95.83 5.81L96.07 5.81L96.07 5.81Q96.21 5.81 96.29 5.89L96.29 5.89L96.29 5.89Q96.38 5.98 96.38 6.12L96.38 6.12L96.38 12.78L96.38 12.78Q96.38 12.92 96.29 13.01L96.29 13.01L96.29 13.01Q96.21 13.09 96.07 13.09L96.07 13.09L95.83 13.09ZM101.42 13.23L101.42 13.23Q99.96 13.23 99.16 12.34L99.16 12.34L99.16 12.34Q98.35 11.45 98.31 10.04L98.31 10.04L98.29 9.45L98.31 8.86L98.31 8.86Q98.35 7.45 99.16 6.56L99.16 6.56L99.16 6.56Q99.96 5.67 101.42 5.67L101.42 5.67L101.42 5.67Q102.87 5.67 103.68 6.56L103.68 6.56L103.68 6.56Q104.48 7.45 104.52 8.86L104.52 8.86L104.52 8.86Q104.54 9.00 104.54 9.45L104.54 9.45L104.54 9.45Q104.54 9.90 104.52 10.04L104.52 10.04L104.52 10.04Q104.48 11.45 103.68 12.34L103.68 12.34L103.68 12.34Q102.87 13.23 101.42 13.23L101.42 13.23ZM101.42 12.42L101.42 12.42Q102.41 12.42 103.02 11.78L103.02 11.78L103.02 11.78Q103.63 11.14 103.67 9.97L103.67 9.97L103.67 9.97Q103.68 9.83 103.68 9.45L103.68 9.45L103.68 9.45Q103.68 9.07 103.67 8.93L103.67 8.93L103.67 8.93Q103.63 7.76 103.02 7.12L103.02 7.12L103.02 7.12Q102.41 6.48 101.42 6.48L101.42 6.48L101.42 6.48Q100.42 6.48 99.81 7.12L99.81 7.12L99.81 7.12Q99.20 7.76 99.16 8.93L99.16 8.93L99.15 9.45L99.16 9.97L99.16 9.97Q99.20 11.14 99.81 11.78L99.81 11.78L99.81 11.78Q100.42 12.42 101.42 12.42L101.42 12.42ZM106.76 13.09L106.76 13.09Q106.62 13.09 106.54 13.01L106.54 13.01L106.54 13.01Q106.46 12.92 106.46 12.78L106.46 12.78L106.46 6.12L106.46 6.12Q106.46 5.98 106.54 5.89L106.54 5.89L106.54 5.89Q106.62 5.81 106.76 5.81L106.76 5.81L107.00 5.81L107.00 5.81Q107.14 5.81 107.23 5.89L107.23 5.89L107.23 5.89Q107.31 5.98 107.31 6.12L107.31 6.12L107.31 6.78L107.31 6.78Q107.73 6.23 108.27 5.95L108.27 5.95L108.27 5.95Q108.81 5.67 109.66 5.67L109.66 5.67L109.66 5.67Q111.03 5.67 111.78 6.54L111.78 6.54L111.78 6.54Q112.52 7.42 112.52 8.81L112.52 8.81L112.52 12.78L112.52 12.78Q112.52 12.92 112.43 13.01L112.43 13.01L112.43 13.01Q112.35 13.09 112.21 13.09L112.21 13.09L111.97 13.09L111.97 13.09Q111.83 13.09 111.75 13.01L111.75 13.01L111.75 13.01Q111.66 12.92 111.66 12.78L111.66 12.78L111.66 8.88L111.66 8.88Q111.66 7.74 111.11 7.11L111.11 7.11L111.11 7.11Q110.56 6.48 109.52 6.48L109.52 6.48L109.52 6.48Q108.51 6.48 107.91 7.12L107.91 7.12L107.91 7.12Q107.31 7.76 107.31 8.88L107.31 8.88L107.31 12.78L107.31 12.78Q107.31 12.92 107.23 13.01L107.23 13.01L107.23 13.01Q107.14 13.09 107.00 13.09L107.00 13.09L106.76 13.09ZM117.03 13.23L117.03 13.23Q116.12 13.23 115.49 12.92L115.49 12.92L115.49 12.92Q114.87 12.61 114.56 12.22L114.56 12.22L114.56 12.22Q114.24 11.83 114.24 11.59L114.24 11.59L114.24 11.59Q114.24 11.47 114.34 11.39L114.34 11.39L114.34 11.39Q114.44 11.31 114.55 11.31L114.55 11.31L114.76 11.31L114.76 11.31Q114.86 11.31 114.92 11.35L114.92 11.35L114.92 11.35Q114.98 11.38 115.07 11.49L115.07 11.49L115.07 11.49Q115.37 11.93 115.82 12.17L115.82 12.17L115.82 12.17Q116.26 12.42 117.03 12.42L117.03 12.42L117.03 12.42Q117.89 12.42 118.43 12.09L118.43 12.09L118.43 12.09Q118.96 11.76 118.96 11.14L118.96 11.14L118.96 11.14Q118.96 10.77 118.74 10.53L118.74 10.53L118.74 10.53Q118.52 10.29 118.04 10.12L118.04 10.12L118.04 10.12Q117.56 9.94 116.61 9.72L116.61 9.72L116.61 9.72Q115.36 9.44 114.91 8.95L114.91 8.95L114.91 8.95Q114.45 8.46 114.45 7.70L114.45 7.70L114.45 7.70Q114.45 7.18 114.74 6.72L114.74 6.72L114.74 6.72Q115.02 6.26 115.59 5.96L115.59 5.96L115.59 5.96Q116.16 5.67 116.96 5.67L116.96 5.67L116.96 5.67Q117.80 5.67 118.38 5.96L118.38 5.96L118.38 5.96Q118.96 6.24 119.25 6.62L119.25 6.62L119.25 6.62Q119.53 7 119.53 7.24L119.53 7.24L119.53 7.24Q119.53 7.36 119.44 7.44L119.44 7.44L119.44 7.44Q119.35 7.52 119.22 7.52L119.22 7.52L119.01 7.52L119.01 7.52Q118.82 7.52 118.71 7.34L118.71 7.34L118.71 7.34Q118.43 6.92 118.07 6.70L118.07 6.70L118.07 6.70Q117.71 6.48 116.96 6.48L116.96 6.48L116.96 6.48Q116.14 6.48 115.72 6.82L115.72 6.82L115.72 6.82Q115.30 7.15 115.30 7.70L115.30 7.70L115.30 7.70Q115.30 8.04 115.47 8.26L115.47 8.26L115.47 8.26Q115.64 8.48 116.10 8.67L116.10 8.67L116.10 8.67Q116.56 8.86 117.45 9.06L117.45 9.06L117.45 9.06Q118.75 9.35 119.28 9.84L119.28 9.84L119.28 9.84Q119.81 10.33 119.81 11.14L119.81 11.14L119.81 11.14Q119.81 11.72 119.49 12.19L119.49 12.19L119.49 12.19Q119.17 12.67 118.54 12.95L118.54 12.95L118.54 12.95Q117.91 13.23 117.03 13.23L117.03 13.23Z"></path></g><!----><g data-v-423bf9ae="" id="be766e98-761a-4fe7-ad25-863153769b62" transform="matrix(1.6304345347255225,0,0,1.6304345347255225,210.14289859581987,-27.969559461273946)" stroke="none" fill="black"><path d="M54.6 61.5c4.9-.1 7.3-.7 8.3-2.3 1.4-2.1.1-5.8-2.2-11.2-1.4-3.4-.3-7.2.9-11.3l.3-1c.6-2.2.6-3.4 0-4.2-.7-1-2.3-1.1-4.4-1.1-.6 0-.7-.1-.7-.1-.1-.1-.1-.4-.1-.7v-.2c0-.9 0-1.9-1.5-2.1H54.3v-1.4c1.6-1.7 2.4-3 2.4-4.2 0-1.2-.8-1.9-1.4-2.5-.5-.5-.9-.9-.9-1.3 0-.3-.2-.5-.5-.5-.2 0-.5.2-.5.5 0 .4-.4.8-.9 1.3-.6.6-1.4 1.3-1.4 2.5s.7 2.5 2.4 4.1v1.4H52.6c-1.5.2-1.5 1.2-1.5 2.1v.2c0 .3 0 .6-.1.7 0 0-.1.1-.7.1-2.1 0-3.7.1-4.4 1.1-.6.8-.6 2.1 0 4.2l.3 1c1.2 4 2.3 7.9.9 11.3-2.2 5.4-3.6 9.1-2.2 11.2 1.1 1.6 3.5 2.2 8.7 2.3v5c-1.7-.6-3.1-1.3-3.1-2.3 0-.3-.2-.5-.5-.5s-.5.2-.5.4c0 0-.3 1.7-1.4 1.7-.4 0-.8-.2-1.4-.5C40 60.9 31.2 51 31.1 50.9c0 .1-.1.1-.2.1s-.3 0-.4.1c-4.2 4.2-5.2 8.1-2.6 10.7 2.6 2.6 2.5 5.8 2.5 9v1.3c0 .3.2.5.5.5s.5-.2.5-.4c.5-3.9 2-10.2 4.4-10.2 1.2 0 2.5 1.7 3.9 3.6 2.4 3.1 5.3 7 10.4 7 5.4 0 8.2-.4 9.5-1.5.7.5 1.5 1.1 2.8 1.1.3 0 .5-.2.5-.5s-.2-.5-.5-.5c-1 0-1.6-.4-2.3-.9.1-.3.2-.7.2-1.1 0-.9-1.3-1.2-3.6-1.7-.7-.2-1.4-.4-2.2-.6V61.5zM52 21.7c0-.7.6-1.2 1.1-1.8.3-.2.5-.5.7-.8.2.3.5.5.7.8.6.5 1.1 1.1 1.1 1.8s-.5 1.6-1.4 2.7v-2.1c0-.3-.2-.5-.5-.5s-.5.2-.5.5v2c-.7-1-1.2-1.9-1.2-2.6zm1.1 6.5h1.7c1 0 1 .1 1 1.1v.1h-3.7v-.1c0-.9 0-1.1 1-1.1zm3.4 40.2c1.1.3 2.5.6 2.8.9 0 .3-.1.6-.3.9-.6.9-2.6 1.5-9 1.5-4.6 0-7.4-3.7-9.6-6.7-1.6-2.1-3-4-4.7-4-2.3 0-3.7 3.2-4.5 6.2-.2-2.1-.9-4.2-2.7-6-2.8-2.8 0-6.6 2.2-8.9 1.7 1.9 9.4 10.2 15.5 14 .7.4 1.3.7 1.9.7.9 0 1.5-.6 1.9-1.2 1.3 1.3 4.1 2 6.5 2.6zm-2.6-7.9c-5 0-7.3-.5-8.2-1.8-1.1-1.7.3-5.3 2.3-10.3 1.6-3.8.3-7.9-.8-11.9l-.3-1c-.5-1.8-.6-2.9-.2-3.4.5-.6 1.9-.7 3.6-.7.7 0 1.1-.1 1.4-.4.1-.1.2-.3.3-.5h3.9c0 .2.1.4.3.5.3.3.7.4 1.4.4 1.8 0 3.1 0 3.6.7.4.5.3 1.6-.2 3.4l-.3 1c-1.2 4-2.4 8.2-.8 11.9 2.1 5 3.4 8.6 2.3 10.3-.9 1.3-3.3 1.8-8.3 1.8z"></path></g><!----></svg>